<svg height='100px' width='100px'  fill="#000000" xmlns="http://www.w3.org/2000/svg" viewBox="0 0 512 512" x="0px" y="0px"><title>skill magic meteor</title><path d="M156.63,131.09a7.62,7.62,0,0,0,.93,2.62l.19.38a15.25,15.25,0,0,0,1.48,2l.45.35a15.11,15.11,0,0,0,2.17,1.75l1.88.81,2.1.29a8,8,0,0,0,7.21-4.94,4.13,4.13,0,0,0,.53-2,6.15,6.15,0,0,0-.14-3.21,10.17,10.17,0,0,0-4.89-6.62,8.31,8.31,0,0,0-4-1.12,7.23,7.23,0,0,0-1.33.13c-.12,0-.24,0-.36,0a6.85,6.85,0,0,0-4.17,2,7.7,7.7,0,0,0-2.12,5.24c0,.06,0,.12,0,.18A7,7,0,0,0,156.63,131.09Z"></path><path d="M274.16,78.44c5.48,4.93,11.13,10.41,18.43,11.82,6.54,1.26,10.51-4.78,8.06-10.69-2.75-6.61-8.79-11.44-14-16.17-4.83-4.37-13.92-11.55-19.45-4.25C262.16,65.8,269.29,74.05,274.16,78.44Z"></path><path d="M356.39,73.69c7,10.38,13.61,21,20.41,31.49,12,18.52,27.34,45.26,50.58,49.86s42.89-13.74,37.2-37.92c-5.16-21.89-25.84-40.19-44.65-50.21-6-3.2-12.91,3.22-10.92,8.87a9.48,9.48,0,0,1,0,2.71c-.53,2.3-2.87,3.73-4.93,4.52a14.75,14.75,0,0,1-4.49.89,63.91,63.91,0,0,1-7.77-2c-2.55-2.72-5.15-5.37-7.76-7.93-6.6-6.46-13.52-13.48-20.9-19.8-6.26-8.25-13.06-16-20.83-22-5.41-4.14-12.16,3.77-9,9.14C340,52.62,349.06,62.77,356.39,73.69Z"></path><path d="M394.83,57.08a6.3,6.3,0,0,0,1.85.13l.65.09a4.41,4.41,0,0,0,2.29-.52,5.68,5.68,0,0,0,2.83-2.47,7.37,7.37,0,0,0,.81-3.06A6,6,0,0,0,401.52,47l-1.39-1.13c-.25-.2-.5-.39-.76-.57l-.58-.46a4.62,4.62,0,0,0-2.31-.75,5.88,5.88,0,0,0-4,.75,7.46,7.46,0,0,0-2.23,2.28,6.8,6.8,0,0,0-.63,4.89A6.62,6.62,0,0,0,394.83,57.08Z"></path><path d="M182.94,318.76a38.71,38.71,0,0,0-5.69-5.85c-3.37-3-8.78-3.63-12.05,0s-3.06,8.56,0,12.29c.48.58,1,1.14,1.52,1.68,2.42,2.85,4.89,6.26,8.4,7.1a7.51,7.51,0,0,0,1.92.7c3.35.67,7.44-.93,8.21-4.75a10.26,10.26,0,0,0,.19-2A8.54,8.54,0,0,0,182.94,318.76Z"></path><path d="M103.23,399.58A253.35,253.35,0,0,1,42,354.13c-6.75-6.9-16.86,3.53-10.45,10.66l.93,1C37.1,376,43.44,385.67,49.16,395.13q9.51,15.76,20.1,30.75c12.13,17.15,26,41.06,47.67,46.44,19.95,4.95,40.48-12,32-33.41C141.14,419.27,120.52,408.84,103.23,399.58Z"></path><path d="M283.9,417.1c-8-16.21-21.33-28.47-35.87-38.33-7.6-5.16-13.34-9.08-20.67-14.64-5.52-4.18-17.3-13.81-28.38-14.39-4.53-.24-8.82,5.72-5.8,10.31a7.38,7.38,0,0,1-1.17,9.57c-1.06,1-2.8,1.31-4.71,1.27-7.35-1.43-13.74-8.34-18.49-13.54C157,344.43,146.57,331,133.32,319.49c-13-11.36-26.95-21.65-40.67-32.16-6.84-5.24-13.52-10.7-20.21-16.14-6.87-5.6-13-12.24-20.3-17.19a3.65,3.65,0,0,0-4.35-.05c-3.51.28-6.68,3.17-5.39,7.34,3.48,11.29,14.24,20.46,21.7,29.22,8.24,9.68,16.44,19.4,24.8,29,16.65,19.06,33.2,38.29,48.17,58.77,13.35,18.25,25.4,37.45,39.27,55.31,13.38,17.24,29.43,35.55,50,43.65a56.77,56.77,0,0,0,31.88,2.55,55.85,55.85,0,0,0,15.52-5.71A31.09,31.09,0,0,0,287,460.63C290.41,454.35,293.53,436.57,283.9,417.1Zm-28.46,35.16c-28.49,10.25-48.33-25.5-52.58-31.18-2.59-3.47-5.72-10.87-6.94-15a5.53,5.53,0,0,1-.35-4.8,2.94,2.94,0,0,1,.75-1.54,2.25,2.25,0,0,1,1.91-1.86c2.58-1.88,6.24-2.29,8.69.51.59.68,1.22,1.4,1.88,2.14a38.52,38.52,0,0,0,21.9,12.66l.2,0c7.87,1.39,15.88,2.23,22.62,7C263.69,427.47,268.92,447.41,255.44,452.26Z"></path><path d="M438.29,326.14c-17.79-14.65-37.86-23.05-57-34.92-22.42-13.92-41.75-32.55-60.92-50.64a7.08,7.08,0,0,0-2.88-1.69c-5.92-5.48-12.87-10.2-18.53-14.48s-13.6,4.13-9.74,9.94c4.4,6.65,9.54,13.27,13.05,20.46,4.13,8.44-2.33,11.12-9.68,8.61-13.79-4.72-25.17-17.25-34.65-28-10.84-12.24-21.17-25-31.7-37.49-5.69-6.76-11.51-13.38-17.41-20l-1.37-1.53c-4-7.16-10-13.4-16.65-15.75-5.76-2-9.69,5.1-7.25,9.63h0c2.32,4.84,21.37,26.26,6.18,27.17a8.63,8.63,0,0,0-1.05.12c-5-2.5-10.5-7.58-12.44-9.28a131.12,131.12,0,0,1-11-11c-2.68-3.19-35.89-42.66-42.54-50.44-8.65-10.12-17.18-20.38-26-30.32C87.65,86.48,79,75.28,69,66.17c-7.27-6.59-20.08,2-14.16,11.14C61.2,87.2,69.37,96.1,76.73,105.25c7.2,9,14.57,17.76,22,26.56q23.15,27.49,46.32,55,22.75,26.91,45.4,53.92c7.23,8.63,14.46,17.3,22.57,25.1,7.66,7.36,16.14,13.74,24.42,20.35a288.31,288.31,0,0,1,21.7,19.19,7.71,7.71,0,0,1-.42,7c-2.54,4.11-9.69.54-13.36-.12-5-.9-9.43-.65-12.46,3.9a4.49,4.49,0,0,0,.67,5.29,12.38,12.38,0,0,0,4.88,3c7.58,6.47,15,12.38,21.31,20.45,7.79,10,13.83,21.25,20.28,32.18,11.32,19.2,24.38,37.05,41.39,51.42,15.9,13.44,34.32,24.08,54.52,29,10.38,2.53,21.44,3.88,32.1,2.86a56,56,0,0,0,15.27-3.37c17.27-6.82,28.36-16.51,35.31-32.74C470.8,395.72,469.53,351.87,438.29,326.14Zm-91.87-33.95c4,.87,7.49,3.92,10.88,6.15,3.87,2.54,8.22,4.85,9.43,9.7s-2.29,8.75-6.91,9.26-8.21-3.1-11.67-5.68-7.44-5-9.82-8.7C334.72,297.26,340.68,290.92,346.42,292.19ZM427.17,389a36.16,36.16,0,0,1-5.93,17c-8.73,12.84-27.94,15.09-36.76,12.51-21.67-6.34-34.15-26.43-45.83-44.49-6.83-10.56-13.8-21-20.5-31.68-2.18-3.47-5-7.6-6.09-11.61a16.48,16.48,0,0,1-.76-8.46c.5-2.76,3.05-4.61,5.63-5.15a9.92,9.92,0,0,1,9.3-.41c11.36,4.92,18.85,15.58,29.78,21.29,10.41,5.45,39.95,7.23,59,24.27C422.46,369,427.76,378.9,427.17,389Z"></path><path d="M479.84,223.56c-8.48-21.36-31.34-29.61-51.7-34.06-12.34-2.7-25.1-4.84-36-11.65-11.09-6.91-20-17.28-29.14-26.57S344.87,132,334.59,123.8c-9.65-7.68-20.17-12.08-32-14.85-14.51-3.38-27.37-6.88-39.09-16.75-6.64-5.58-12.19-12.25-18-18.64a55.18,55.18,0,0,0-6.83-7.91c-3.47-3.57-6.66-7.88-12-7.8a6,6,0,0,0-5.83,5.95c-.28,4.15,2.27,7.25,4.93,10.13,3,5.68,7.73,10.91,11.33,15.77l16.14,21.76c9,12.12,17.08,26.69,31.87,31.93,15,5.32,32,3.88,44.68,15.28,5.22,4.68,9.8,11.93,9,19.33-.47,4.38-4.47,8.09-8.17,6.83l-4-3.69c-4.89-4.53-13,1.23-9.39,7.39a19.57,19.57,0,0,0,3.05,3.95c3.07,5.83,7.93,10.77,12.21,15.58,6.08,6.84,12.12,13.71,18.34,20.42,12.47,13.45,24.43,27.84,38,40.17,11.05,10,24.74,18.55,40.06,18,13.58-.5,33.85-7.2,41.57-19.7,4.06-3.7,7.14-9.26,9-13.88A39.6,39.6,0,0,0,479.84,223.56ZM438,251.18a15.4,15.4,0,0,1-5.25,3.47c-6.05,3.9-15.67,2.42-22.5-1.56-11.69-6.79-20-19.83-27.07-31.11-3.28-5.22,2.21-12.92,8.13-10.78,13.21,4.76,28.15,5.89,40.87,12C442.57,228.26,447,242.33,438,251.18Z"></path></svg>