<svg height='100px' width='100px'  fill="#000000" xmlns="http://www.w3.org/2000/svg" viewBox="0 0 64 64" x="0px" y="0px"><title>meteor, disaster, meteroid, natural, nature</title><g data-name="10"><path d="M20,33A11,11,0,1,0,31,44,11,11,0,0,0,20,33Zm0,20a9,9,0,1,1,9-9A9,9,0,0,1,20,53Z"></path><path d="M58.71,5.29a1,1,0,0,0-1.32-.08L38,20.2l2-5.88a1,1,0,0,0-1.66-1l-13,13,2.66-8a1,1,0,0,0-1.66-1L12.68,30.91A15,15,0,1,0,33.09,51.32L46.71,37.71a1,1,0,0,0-1-1.66l-8,2.66,13-13a1,1,0,0,0-1-1.66L43.8,26l15-19.4A1,1,0,0,0,58.71,5.29Zm-18.5,22.1A1,1,0,0,0,41.32,29l5-1.66-13,13a1,1,0,0,0,1,1.66l8-2.66L31.58,50a.87.87,0,0,0-.17.22A13,13,0,1,1,13.77,32.59a.87.87,0,0,0,.22-.17L24.71,21.7l-2.66,8a1,1,0,0,0,1.66,1l13-13-1.66,5a1,1,0,0,0,1.56,1.11L52.44,11.56Z"></path><path d="M51.29,30.29l-3,3a1,1,0,0,0,0,1.42,1,1,0,0,0,1.42,0l3-3a1,1,0,0,0-1.42-1.42Z"></path><path d="M31,16a1,1,0,0,0,.71-.29l4-4a1,1,0,0,0-1.42-1.42l-4,4a1,1,0,0,0,0,1.42A1,1,0,0,0,31,16Z"></path><path d="M45,10a1,1,0,0,0,.71-.29l1-1a1,1,0,1,0-1.42-1.42l-1,1a1,1,0,0,0,0,1.42A1,1,0,0,0,45,10Z"></path></g></svg>