<svg height='100px' width='100px'  fill="#000000" xmlns="http://www.w3.org/2000/svg" xmlns:xlink="http://www.w3.org/1999/xlink" version="1.1" x="0px" y="0px" viewBox="0 0 100 100" enable-background="new 0 0 100 100" xml:space="preserve"><g><path d="M96.3,67.7c-0.1-0.4-0.5-0.7-0.9-0.6c-0.9,0.2-2-0.1-3.3-0.8c-0.3-0.2-0.5-0.4-0.8-0.7c-0.7-0.9-0.9-1.8-1.1-2.2   c-1.6-5.2-5.9-6.6-5.9-6.6c-1.3-0.5-2.8-0.6-4-0.7c-0.3,0-0.6,0-1,0c-0.4,0-0.7,0-1,0c-1.3-0.1-3-0.3-4.5-1.3   c2.9-0.6,8.4-1.4,12-2.1c3.8-0.7,7-1.3,8.3-1.6c0.4-0.1,0.7-0.5,0.6-0.9c-0.1-0.4-0.4-0.7-0.8-0.7h-0.3c-1.5-0.3-4.4-0.9-7.8-1.5   c-3.2-0.6-8-1.2-10.7-1.8c1.8-0.9,3.3-2.1,4.3-3.6c0.3-0.5,0.7-1,1.2-1.7c0.2-0.3,0.4-0.7,0.7-1c0.5-0.8,1.2-1.9,1.5-2.2   c0.3-0.4,1.1-0.8,1.6-1c1-0.4,1.5-0.6,2.6-0.6c0.3,0,0.7,0.1,1,0.2c1,0.2,2.2,0.5,3.5,0c0.6-0.2,1.1-0.4,1.6-0.7   c1.3-0.7,2.2-1.8,2.8-3.1c0.2-0.2,0.3-0.5,0.4-0.8c0.2-0.4,0-0.9-0.3-1.1c-0.4-0.2-0.8-0.1-1.1,0.2c-0.5,0.8-1.5,1.3-2.9,1.7   c-0.3,0.1-0.7,0.1-1.1,0c-1.2-0.1-1.9-0.6-2.3-0.8c-4.8-2.5-8.8-0.5-8.8-0.5c-1.3,0.6-2.4,1.5-3.3,2.4c-0.2,0.2-0.5,0.4-0.7,0.7   c-0.3,0.2-0.5,0.5-0.8,0.7c-1,0.9-2.8,2.1-4.8,2.5c1.7-2.6,4.2-6.5,6.6-10c2-3,3.7-5.6,4.5-6.9l0.2-0.2c0.3-0.3,0.3-0.8,0.1-1.1   c-0.3-0.3-0.7-0.4-1.1-0.2c-1.1,0.7-3.8,2.5-6.9,4.5c-3.1,2.1-6.4,4.3-8.9,5.9c0.7-2,0.9-3.9,0.6-5.7c-0.1-0.6-0.2-1.2-0.4-2   c-0.1-0.4-0.2-0.8-0.3-1.2c-0.2-0.9-0.5-2.1-0.5-2.6c0-0.5,0.2-1.4,0.4-1.8c0.4-1,0.7-1.5,1.4-2.2c0.3-0.2,0.6-0.4,0.9-0.6   c0.9-0.6,1.9-1.2,2.5-2.5c0.3-0.5,0.5-1.1,0.6-1.6c0.4-1.4,0.3-2.9-0.2-4.1c-0.1-0.3-0.1-0.6-0.2-0.8c-0.1-0.4-0.6-0.6-1-0.5   c-0.4,0.1-0.7,0.5-0.6,0.9c0.2,0.9-0.1,2-0.8,3.3c-0.2,0.3-0.4,0.5-0.7,0.8c-0.9,0.7-1.8,0.9-2.2,1.1c-5.2,1.6-6.6,5.9-6.6,5.9   c-0.5,1.3-0.6,2.8-0.7,4c0,0.3,0,0.6,0,1c0,0.4,0,0.7,0,1c-0.1,1.5-0.4,3.6-1.8,5.2c-0.7-2.9-1.6-7.8-2.4-12.3   c-0.6-3.5-1.2-6.6-1.5-8.1V6.5c0-0.4-0.3-0.8-0.7-0.8c-0.4-0.1-0.8,0.2-0.9,0.6c-0.3,1.3-0.9,4.6-1.6,8.5   c-0.6,3.4-1.3,7.2-1.9,10.1c-0.9-1.8-2.1-3.2-3.6-4.3c-0.5-0.3-1-0.7-1.7-1.2c-0.3-0.2-0.7-0.4-1-0.7c-0.8-0.5-1.9-1.2-2.2-1.5   c-0.4-0.3-0.8-1.1-1-1.6c-0.4-1-0.6-1.5-0.6-2.6c0-0.3,0.1-0.7,0.2-1c0.2-1,0.5-2.2,0-3.5c-0.2-0.6-0.4-1.1-0.7-1.6   c-0.7-1.3-1.8-2.2-3.1-2.8c-0.2-0.2-0.5-0.3-0.8-0.4c-0.4-0.2-0.9,0-1.1,0.3C30,4.5,30.1,5,30.5,5.2c0.8,0.5,1.3,1.5,1.7,2.9   c0.1,0.3,0.1,0.7,0,1.1c-0.1,1.2-0.6,1.9-0.8,2.3c-2.5,4.8-0.5,8.8-0.5,8.8c0.6,1.3,1.5,2.4,2.4,3.3c0.2,0.2,0.4,0.5,0.7,0.7   c0.2,0.3,0.5,0.5,0.7,0.8c0.7,0.7,2.5,3,2.5,5.6c-0.1,0-0.1,0.1-0.2,0.1c-2.5-1.5-6.9-4.4-10.8-7c-2.8-1.9-5.3-3.6-6.6-4.4   l-0.2-0.2c-0.3-0.3-0.8-0.3-1.1-0.1c-0.3,0.3-0.4,0.7-0.2,1.1c0.7,1.1,2.5,3.9,4.7,7.1c2,3,4.2,6.3,5.8,8.8   c-1.7-0.5-3.3-0.6-4.9-0.3c-0.6,0.1-1.2,0.2-2,0.4c-0.4,0.1-0.8,0.2-1.2,0.3c-0.9,0.2-2.1,0.5-2.6,0.5c-0.5,0-1.4-0.2-1.8-0.4   c-1-0.4-1.5-0.7-2.2-1.4c-0.2-0.3-0.4-0.6-0.6-0.9c-0.6-0.9-1.2-1.9-2.5-2.5c-0.5-0.3-1.1-0.5-1.6-0.6C7.8,31,6.4,31,5.1,31.5   c-0.3,0.1-0.6,0.1-0.8,0.2c-0.4,0.1-0.6,0.6-0.5,1c0.1,0.4,0.5,0.7,0.9,0.6c0.9-0.2,2,0.1,3.3,0.8c0.3,0.2,0.5,0.4,0.8,0.7   c0.7,0.9,0.9,1.8,1.1,2.2c1.6,5.2,5.9,6.6,5.9,6.6c1.3,0.5,2.8,0.6,4,0.7c0.3,0,0.6,0,1,0c0.4,0,0.7,0,1,0c1.2,0.1,2.7,0.3,4,1.1   c-3,0.7-7.1,1.5-11.2,2.2c-3.5,0.6-6.6,1.2-8.1,1.5H6.3c-0.4,0-0.8,0.3-0.8,0.7c-0.1,0.4,0.2,0.8,0.6,0.9c1.3,0.3,4.6,1,8.5,1.7   c3.6,0.7,7.2,1.5,10.1,2.1c-1.7,0.9-3.1,2-4.1,3.5c-0.3,0.5-0.7,1-1.2,1.7c-0.2,0.3-0.4,0.7-0.7,1c-0.5,0.8-1.2,1.9-1.5,2.2   c-0.3,0.4-1.1,0.8-1.6,1c-1,0.4-1.5,0.6-2.6,0.6c-0.3,0-0.7-0.1-1-0.2c-1-0.2-2.2-0.5-3.5,0c-0.6,0.2-1.1,0.4-1.6,0.7   c-1.3,0.7-2.2,1.8-2.8,3.1c-0.2,0.2-0.3,0.5-0.4,0.8c-0.2,0.4,0,0.9,0.3,1.1C4.5,70.5,5,70.3,5.2,70c0.5-0.8,1.5-1.3,2.9-1.7   c0.3-0.1,0.7-0.1,1.1,0c1.2,0.1,1.9,0.6,2.3,0.8c4.8,2.5,8.8,0.5,8.8,0.5c1.3-0.6,2.4-1.5,3.3-2.4c0.2-0.2,0.5-0.4,0.7-0.7   c0.3-0.2,0.5-0.5,0.8-0.7c1-0.8,2.5-1.9,4.3-2.4c-1.7,2.6-4.2,6.4-6.5,9.8c-2,3-3.8,5.7-4.6,7l-0.2,0.2c-0.3,0.3-0.3,0.8-0.1,1.1   c0.2,0.2,0.4,0.3,0.7,0.3c0.1,0,0.3,0,0.4-0.1c1.1-0.7,3.8-2.5,7-4.6c3.2-2.1,6.7-4.5,9.2-6.1c-0.6,1.8-0.7,3.6-0.4,5.3   c0.1,0.6,0.2,1.2,0.4,2c0.1,0.4,0.2,0.8,0.3,1.2c0.2,0.9,0.5,2.1,0.5,2.6c0,0.5-0.2,1.4-0.4,1.8c-0.4,1-0.7,1.5-1.4,2.2   c-0.3,0.2-0.6,0.4-0.9,0.6c-0.9,0.6-1.9,1.2-2.5,2.5c-0.3,0.5-0.5,1.1-0.6,1.6c-0.4,1.4-0.3,2.9,0.2,4.1c0.1,0.3,0.1,0.6,0.2,0.8   c0.1,0.4,0.6,0.6,1,0.5c0.4-0.1,0.7-0.5,0.6-0.9c-0.2-0.9,0.1-2,0.8-3.3c0.2-0.3,0.4-0.5,0.7-0.8c0.9-0.7,1.8-0.9,2.2-1.1   c5.2-1.6,6.6-5.9,6.6-5.9c0.5-1.3,0.6-2.8,0.7-4c0-0.3,0-0.6,0-1c0-0.4,0-0.7,0-1c0.1-1.5,0.5-3.5,1.8-5c0.7,3,1.5,8.6,2.3,12.7   c0.7,3.9,1.3,7.3,1.6,8.5c0.1,0.4,0.4,0.6,0.8,0.6c0,0,0.1,0,0.1,0c0.4-0.1,0.7-0.4,0.7-0.8V94c0.3-1.5,0.9-4.5,1.6-8   c0.7-3.7,1.5-8.7,2.2-11.7c0.9,2.2,2.3,3.9,4,5.1c0.5,0.3,1,0.7,1.7,1.2c0.3,0.2,0.7,0.4,1,0.7c0.8,0.5,1.9,1.2,2.2,1.5   c0.4,0.3,0.8,1.1,1,1.6c0.4,1,0.6,1.5,0.6,2.6c0,0.3-0.1,0.7-0.2,1c-0.2,1-0.5,2.2,0,3.5c0.2,0.6,0.4,1.1,0.7,1.6   c0.7,1.3,1.8,2.2,3.1,2.8c0.2,0.2,0.5,0.3,0.8,0.4c0.4,0.2,0.9,0,1.1-0.3c0.2-0.4,0.1-0.8-0.2-1.1c-0.8-0.5-1.3-1.5-1.7-2.9   c-0.1-0.3-0.1-0.7,0-1.1c0.1-1.2,0.6-1.9,0.8-2.3c2.5-4.8,0.5-8.8,0.5-8.8c-0.6-1.3-1.5-2.4-2.4-3.3c-0.2-0.2-0.4-0.5-0.7-0.7   c-0.2-0.3-0.5-0.5-0.7-0.8c-0.9-1.1-2.2-2.8-2.5-4.9c2.6,1.6,6.5,4.3,10,6.7c2.9,2,5.5,3.8,6.8,4.6l0.2,0.2   c0.2,0.2,0.4,0.2,0.6,0.2c0.2,0,0.4-0.1,0.5-0.2c0.3-0.3,0.4-0.7,0.2-1.1c-0.7-1.1-2.7-4-5-7.2c-2.2-3.2-4.7-6.7-6.4-9.2   c1.9,0.7,3.9,0.9,5.7,0.6c0.6-0.1,1.2-0.2,2-0.4c0.4-0.1,0.8-0.2,1.2-0.3c0.9-0.2,2.1-0.5,2.6-0.5s1.4,0.2,1.8,0.4   c1,0.4,1.5,0.7,2.2,1.4c0.2,0.3,0.4,0.6,0.6,0.9c0.6,0.9,1.2,1.9,2.5,2.5c0.5,0.3,1.1,0.5,1.6,0.6c1.4,0.4,2.9,0.3,4.1-0.2   c0.3-0.1,0.6-0.1,0.8-0.2C96.1,68.6,96.4,68.1,96.3,67.7z M73.4,53.2c0.1-0.7,0.1-1.4,0.2-2.1h11.9C81.7,51.8,76.6,52.5,73.4,53.2z    M49.8,29.4c2.7,0,5.2,0.5,7.6,1.3c7.8,3,13.3,10.6,13.3,19.4c0,11.4-9.3,20.8-20.8,20.8s-20.8-9.3-20.8-20.8c0-4,1.1-7.7,3.1-10.9   c0.1-0.1,0.2-0.3,0.3-0.4c2.8-4.3,7.2-7.5,12.4-8.8C46.4,29.6,48.1,29.4,49.8,29.4z M85.1,49.5H73.6c0-0.7-0.1-1.4-0.2-2   C76.5,48,81.5,48.8,85.1,49.5z M86.9,34.3c-1.3,0-2.6,0.4-3.8,1c-1.8,0.9-2.8,2.8-3.3,3.6c-0.2,0.3-0.4,0.7-0.6,1   c-0.4,0.7-0.8,1.2-1.1,1.7c-1.3,1.8-3.2,3-5.1,3.7c-0.2-0.7-0.3-1.3-0.6-2c2-0.5,4-1.8,5.5-4.2c0.3-0.5,1.4-2.3,1.7-2.7   c0.8-0.9,2.5-1.7,3-1.8C84.1,34.2,85.5,34.1,86.9,34.3L86.9,34.3z M75.9,36.3c0.3-0.2,0.5-0.5,0.8-0.7c0.2-0.2,0.5-0.4,0.7-0.6   c0.8-0.8,2-2.1,4.3-2.4c1.6-0.2,3-0.3,4.4,0.1c-1.3-0.1-2.5,0.2-3.7,0.5c-0.5,0.1-2.5,0.7-3.7,2.2c-0.2,0.2-2.2,3.2-2.2,3.3   c-0.7,1.3-2.3,2.6-4.5,3.1c-0.4-0.9-0.8-1.7-1.3-2.6C72.4,38.8,74.2,37.8,75.9,36.3z M75.3,26.6c-2.3,3.4-4.8,7.2-6.5,9.9   c-0.5-0.6-1-1.3-1.6-1.9l8.3-8.3C75.4,26.4,75.3,26.5,75.3,26.6z M74.4,25C74.4,25,74.5,25,74.4,25L66,33.5c-0.6-0.6-1.3-1.1-2-1.6   C66.6,30.3,70.7,27.5,74.4,25z M64.7,12.7L64.7,12.7c-1,1-1.6,2.1-2.1,3.4c-0.6,1.8,0,3.9,0.2,4.8c0.1,0.4,0.2,0.8,0.3,1.2   c0.2,0.8,0.3,1.4,0.4,2c0.4,2.4-0.3,4.7-1.2,6.6c-0.6-0.4-1.2-0.7-1.8-1c1.3-1.9,1.9-4.3,1.2-7.3c-0.1-0.6-0.6-2.6-0.7-3.1   c-0.1-1.2,0.6-3,0.9-3.4C62.5,14.7,63.5,13.6,64.7,12.7z M58.3,21.9c0-0.4,0-0.7,0-1.1c0-0.3,0-0.6,0-0.9c0.1-1.1-0.1-2.8,1.3-4.7   c1-1.3,2-2.3,3.2-3c-1,0.9-1.6,1.9-2.3,3c-0.3,0.5-1.3,2.2-1.1,4.2c0,0.3,0.7,3.9,0.7,3.9c0.4,1.6,0.2,3.8-1.3,5.8   c-0.9-0.4-1.8-0.7-2.7-0.9C57.4,26.6,58.1,24.5,58.3,21.9z M53.3,27.6c-0.8-0.1-1.5-0.2-2.3-0.2V15.5   C51.7,19.9,52.6,24.7,53.3,27.6z M49.3,15.1C49.3,15.1,49.3,15.1,49.3,15.1l0,12.2c-0.8,0-1.6,0.1-2.4,0.2   C47.6,24.5,48.5,19.5,49.3,15.1z M34,13L34,13c0,1.4,0.4,2.7,1,3.9c0.9,1.8,2.8,2.8,3.6,3.3c0.3,0.2,0.7,0.4,1,0.6   c0.7,0.4,1.2,0.8,1.7,1.1c2.1,1.5,3.2,3.7,3.9,5.8c0,0,0,0,0,0c-0.7,0.1-1.4,0.3-2.1,0.5c-0.4-2.3-1.7-4.4-4.4-6.1   c-0.5-0.3-2.3-1.4-2.7-1.7c-0.9-0.8-1.7-2.5-1.8-3C33.9,16,33.8,14.5,34,13z M36,24.1c-0.2-0.3-0.5-0.5-0.7-0.8   c-0.2-0.2-0.4-0.5-0.6-0.7c-0.8-0.8-2.1-2-2.4-4.3c-0.2-1.6-0.3-3,0.1-4.4c-0.1,1.3,0.2,2.5,0.5,3.7c0.1,0.5,0.7,2.5,2.2,3.7   c0.2,0.2,3.2,2.2,3.3,2.2c1.4,0.8,2.9,2.6,3.2,5.1c-0.9,0.3-1.8,0.7-2.6,1.1C38.6,27.9,37.6,26,36,24.1z M35.6,31.8   c-0.7,0.5-1.3,1-2,1.6l-8.2-8.2C29,27.6,33,30.2,35.6,31.8z M24.3,26.5c-0.1-0.1-0.2-0.2-0.2-0.4l8.4,8.4c-0.6,0.6-1.1,1.2-1.6,1.9   C29.1,33.8,26.6,30,24.3,26.5z M12.8,36.4c1,0.9,2.1,1.5,3.4,2c1.8,0.6,3.9,0,4.8-0.2c0.4-0.1,0.8-0.2,1.2-0.3   c0.8-0.2,1.4-0.3,2-0.4c1.9-0.3,3.8,0,5.4,0.7c-0.4,0.6-0.7,1.2-1,1.8c-1.6-0.8-3.6-1.1-6-0.5c-0.6,0.1-2.6,0.6-3.1,0.7   c-1.2,0.1-3-0.6-3.4-0.9C14.7,38.5,13.6,37.5,12.8,36.4L12.8,36.4z M21.9,42.8c-0.4,0-0.7,0-1.1,0c-0.3,0-0.6,0-0.9,0   c-1.1-0.1-2.8,0.1-4.7-1.3c-1.3-1-2.3-2-3-3.2c0.9,1,1.9,1.6,3,2.3c0.5,0.3,2.2,1.3,4.2,1.1c0.3,0,3.9-0.7,3.9-0.7   c1.3-0.4,2.9-0.3,4.6,0.6c-0.4,0.8-0.7,1.7-0.9,2.6C25.5,43.4,23.8,42.9,21.9,42.8z M26.2,47.2c-0.1,0.7-0.2,1.4-0.2,2.2H15.4   C19.4,48.6,23.4,47.8,26.2,47.2z M14.9,51.1c-0.1,0-0.3-0.1-0.4-0.1H26c0,0.8,0.1,1.7,0.2,2.5C23.2,52.8,19,51.9,14.9,51.1z    M13.1,66.4c1.3,0,2.6-0.4,3.8-1c1.8-0.9,2.8-2.8,3.3-3.6c0.2-0.3,0.4-0.7,0.6-1c0.4-0.7,0.8-1.2,1.1-1.7c1.2-1.7,3-2.8,4.7-3.5   c0.2,0.7,0.4,1.3,0.6,1.9c-1.9,0.6-3.7,1.8-5.2,4.1c-0.3,0.5-1.4,2.3-1.7,2.7c-0.8,0.9-2.5,1.7-3,1.8   C15.9,66.6,14.5,66.6,13.1,66.4L13.1,66.4z M24.1,64.5c-0.3,0.2-0.5,0.5-0.8,0.7c-0.2,0.2-0.5,0.4-0.7,0.6c-0.8,0.8-2,2.1-4.3,2.4   c-1.6,0.2-3,0.3-4.4-0.1c1.3,0.1,2.5-0.2,3.7-0.5c0.5-0.1,2.5-0.7,3.7-2.2c0.2-0.2,2.2-3.2,2.2-3.3c0.7-1.3,2.2-2.5,4.2-3   c0.4,0.9,0.8,1.7,1.3,2.6C27.5,62.1,25.7,63,24.1,64.5z M24.4,74c2.3-3.4,4.8-7.2,6.5-9.8c0.5,0.6,1,1.2,1.6,1.8l-8.3,8.3   C24.2,74.2,24.3,74.1,24.4,74z M25.2,75.6c0,0-0.1,0-0.1,0.1l8.5-8.5c0.6,0.6,1.3,1.1,2,1.6C33.1,70.3,29,73.1,25.2,75.6z    M35.4,87.3L35.4,87.3c1-1,1.6-2.1,2.1-3.4c0.6-1.8,0-3.9-0.2-4.8c-0.1-0.4-0.2-0.8-0.3-1.2c-0.2-0.8-0.3-1.4-0.4-2   c-0.4-2.1,0.1-4.2,0.9-6c0.6,0.3,1.2,0.7,1.8,0.9c-1,1.8-1.4,4-0.8,6.7c0.1,0.6,0.6,2.6,0.7,3.1c0.1,1.2-0.6,3-0.9,3.4   C37.5,85.3,36.6,86.4,35.4,87.3z M41.8,78.1c0,0.4,0,0.7,0,1.1c0,0.3,0,0.6,0,0.9c-0.1,1.1,0.1,2.8-1.3,4.7c-1,1.3-2,2.3-3.2,3   c1-0.9,1.6-1.9,2.3-3c0.3-0.5,1.3-2.2,1.1-4.2c0-0.3-0.7-3.9-0.7-3.9c-0.4-1.4-0.2-3.4,0.9-5.3c0.9,0.3,1.8,0.6,2.7,0.9   C42.6,73.9,42,75.8,41.8,78.1z M49.2,85.6c-0.8-4.3-1.7-9.6-2.3-12.6c0.8,0.1,1.5,0.1,2.3,0.2L49.2,85.6   C49.2,85.6,49.2,85.6,49.2,85.6z M50.8,85.6V73.1c0.8,0,1.6-0.1,2.4-0.2C52.5,76.1,51.6,81.5,50.8,85.6z M66.7,87L66.7,87   c0-1.4-0.4-2.7-1-3.9c-0.9-1.8-2.8-2.8-3.6-3.3c-0.3-0.2-0.7-0.4-1-0.6c-0.7-0.4-1.2-0.8-1.7-1.1c-2-1.4-3.2-3.6-3.8-5.6   c0.7-0.2,1.4-0.4,2-0.6c0.4,2.2,1.7,4.4,4.3,6.1c0.5,0.3,2.3,1.4,2.7,1.7c0.9,0.8,1.7,2.5,1.8,3C66.8,84,66.9,85.5,66.7,87z    M64.8,75.9c0.2,0.3,0.5,0.5,0.7,0.8c0.2,0.2,0.4,0.5,0.6,0.7c0.8,0.8,2.1,2,2.4,4.3c0.2,1.6,0.3,3-0.1,4.4   c0.1-1.3-0.2-2.5-0.5-3.7c-0.1-0.5-0.7-2.5-2.2-3.7c-0.2-0.2-3.2-2.2-3.3-2.2c-1.4-0.8-2.9-2.6-3.2-5.1c0.9-0.4,1.7-0.8,2.6-1.3   C62.1,72,63.1,74,64.8,75.9z M64.2,68.5c0.6-0.5,1.2-1,1.8-1.5l8.2,8.2C70.7,72.7,66.8,70.1,64.2,68.5z M75.4,74l-8.2-8.2   c0.5-0.5,1-1.1,1.4-1.6C70.3,66.8,73,70.6,75.4,74z M87.2,64c-1-0.9-2.1-1.5-3.4-2c-1.8-0.6-3.9,0-4.8,0.2   c-0.4,0.1-0.8,0.2-1.2,0.3c-0.8,0.2-1.4,0.3-2,0.4c-2.1,0.3-4-0.1-5.8-0.8c0.4-0.6,0.7-1.1,1-1.7c1.7,0.9,3.8,1.3,6.4,0.7   c0.6-0.1,2.6-0.6,3.1-0.7c1.2-0.1,3,0.6,3.4,0.9C85.3,61.9,86.4,62.9,87.2,64L87.2,64z M84.9,60c-0.5-0.3-2.2-1.3-4.2-1.1   c-0.3,0-3.9,0.7-3.9,0.7c-1.4,0.4-3.2,0.3-5-0.7c0.4-0.9,0.7-1.8,0.9-2.7c1.4,0.8,3.2,1.3,5.3,1.5c0.4,0,0.7,0,1.1,0   c0.3,0,0.6,0,0.9,0c1.1,0.1,2.8-0.1,4.7,1.3c1.3,1,2.3,2,3,3.2C87,61.3,86,60.6,84.9,60z M53.9,64.2c-1,1.9-3.1,2-5.7,1.5   c-0.2-0.1-0.4-0.1-0.5-0.2c-0.5-0.3-0.8-0.8-0.9-1.6c0.2,0.1,0.5,0.2,0.7,0.2c0.2,0.1,0.5,0.1,0.7,0.2c1.9,0.3,3.3,0.6,5.5-0.5   C53.9,63.9,53.9,64.1,53.9,64.2z M55.3,60.4c0.3,0,0.8,0,1.1-0.2c0.2-0.1,1.3-0.9,1.5-0.9c0.2,0,0.6,1.1,0.9,1.3   c0,0-0.2,0.1-0.2,0.1c-0.1,0.1-0.8-0.6-1-0.4c0,0-0.3,0.1-0.5,0.4c-0.4,0.3-0.7,0.8-1.2,0.8c-2.1,0.2-3.6-1-5.2,0.7   c-0.5,0.2-0.8,0.2-1.3,0c-0.1,0-0.3-0.1-0.4-0.1c-0.4-0.4-0.8-0.5-1.3-0.4c-0.2,0-0.3,0.1-0.5,0.1c-1.3,0.5-3.4-0.1-4.4-1.3   c-0.3-0.3-1.3,0.8-1.4,0.3c0.2,0.1,1.4-1.8,1.5-1.8c0,0,0.2,0.7,0.4,0.8c1.4,0.6,2.8,0.9,4.3,0.2c0.2,0,0.5-0.2,0.7-0.2   c0.6,0,1,0.2,1.6,0.4c0.1,0,0.3,0.1,0.4,0.1c0.1,0,0.3-0.1,0.4-0.1c0.6-0.1,0.9-0.6,1.5-0.6c0.1,0,0.3,0,0.6,0   c0.4,0.1,1.3,0.4,1.6,0.5C54.8,60.4,55.1,60.4,55.3,60.4z M40.4,41.7c-2.4,0.1-4.1,1.7-6,2.9c0.2-3.3,4-4.7,6.9-4.5   c0.3,0,0.7,0,1,0.1c0.3,0.1,0.7,0.1,1,0.2c0.3,0.1,0.5,0.1,0.8,0.2c0.5,0.2,1,0.4,1.4,0.7c0.2,0.1,0.3,0.2,0.5,0.4   c0.4,0.4,0.7,0.9,0.6,1.6c-0.2-0.1-0.3-0.2-0.5-0.2c-0.2-0.1-0.3-0.1-0.5-0.2C43.2,41.5,40.6,41.7,40.4,41.7z M47.1,55.4   c0.5-0.2,1.3,0.9,2.3,0.9c0.2,0,1.9,0.3,3.1-1.8c0.1,0.1,0.1,0.2,0.2,0.4l0,0.1c0.2,0.7,0.2,1.6-0.3,2c-0.1,0.1-0.2,0.2-0.4,0.3   c-0.5,0.3-1,0.5-1.6,0.6c-0.1,0-0.3,0-0.4,0c-0.4,0.1-0.9,0-1.4-0.2c-0.2-0.1-0.3-0.1-0.4-0.2C47.6,57.1,46.2,55.8,47.1,55.4z    M51.8,51.1c0-0.3-0.1-1.6,0-2.5c0-0.2,0.1-1.6,0.2-2.8c0-0.3,0.1-0.6,0.1-0.9c0.5-2.8,3.1-4.9,5.9-4.9c0.2,0,0.4,0,0.7,0   s0.4,0,0.7,0c0.2,0,0.5,0.1,0.8,0.1c0.3,0,0.5,0.1,0.8,0.1c1.3,0.5,3.6,0.5,4.1,2.3c-1.6-0.7-3.3-1-5-1.2c-1.4-0.2-2.8,0.1-3.1,0.2   c-3.4,0.6-4,6.2-4.1,6.8c0,0.2-0.1,0.5-0.1,0.7c-0.1,0.7-0.2,1.4-0.2,2.1c0,0.2-0.2,0.4-0.4,0.3C52,51.5,51.8,51.3,51.8,51.1z    M64.1,45.7c-0.9-0.5-1.8-1.3-3.3-1.4c-0.1,0-0.2,0-0.3,0c-0.6,0-1.2,0.1-1.8,0.3c-0.3,0.1-0.7,0.2-2,0.8c-0.2,0.1-0.8,0.3-1,0.8   c0,0-0.1,0.4,0.3,0.6c0.2,0.1,0.6-0.1,0.9-0.2c0.7-0.3,0.5-0.2,1.1-0.4c0.1,0,1-0.5,1.3-0.3C59,46,58.1,46.6,58,46.8   c-0.1,0.6,0.2,1,0.7,1.4c0.5,0.4,3.7,0.8,4.2-1.8c1.4,0.3,1.8,0.3,1.6-0.4C64.4,45.9,64.1,45.8,64.1,45.7z M61.6,46.6   c-1.4,0.3-1.6-0.2-1.5-0.8c0.4-0.5,1.5-0.6,1.9,0C62.6,46.2,62.2,46.5,61.6,46.6z M44.3,45.4c-0.7-0.5-1.5-0.9-2.4-1   c-0.2,0-0.4-0.1-0.7-0.1c-0.2,0-0.4,0-0.6,0c-1.4,0.1-2.8,0.7-3.4,1.3c-0.1,0.1-0.7,0.5-0.4,0.9c0.3,0.4,1.2-0.1,2-0.4   c0.1,0,0.2-0.1,0.2-0.1c2.4-0.8,0,0.5,0.1,0.5c0,0.1,0,0.1,0,0.2c0,0.3,0.7,2,3.4,1.7c1.1-0.1,1.1-0.6,1.6-1.4   c0.1-0.1,0.3-0.2,0.4-0.3c0.1,0,0.2-0.1,0.3-0.1c0.2-0.1,0.6,0,0.6-0.3C45.4,46.3,44.6,45.5,44.3,45.4z M43.6,46.4   c0,0.4-0.5,0.4-1.1,0.4C42,46.9,41,46.5,41,46.1C41.1,44.9,43.5,45.4,43.6,46.4z"></path></g></svg>